<?xml version="1.0" encoding="UTF-8" standalone="no"?>
<svg xmlns="http://www.w3.org/2000/svg" viewBox="0 0 400 400" width="400" height="400" preserveAspectRatio="xMidYMid meet">
  <!-- 배경은 투명 -->
  <g transform="translate(5, 75)">
  
  <!-- 원형 몬스터볼 - 너비 줄임 -->
  <!-- 몬스터볼 외부 테두리 -->
  <rect x="160" y="70" width="80" height="10" fill="#000000" />
  
  <rect x="140" y="80" width="20" height="10" fill="#000000" />
  <rect x="160" y="80" width="80" height="10" fill="#000000" />
  <rect x="240" y="80" width="20" height="10" fill="#000000" />
  
  <rect x="120" y="90" width="20" height="10" fill="#000000" />
  <rect x="140" y="90" width="120" height="10" fill="#000000" />
  <rect x="260" y="90" width="20" height="10" fill="#000000" />
  
  <rect x="110" y="100" width="10" height="10" fill="#000000" />
  <rect x="120" y="100" width="160" height="10" fill="#000000" />
  <rect x="280" y="100" width="10" height="10" fill="#000000" />
  
  <rect x="100" y="110" width="10" height="20" fill="#000000" />
  <rect x="110" y="110" width="10" height="10" fill="#000000" />
  <rect x="280" y="110" width="10" height="10" fill="#000000" />
  <rect x="290" y="110" width="10" height="20" fill="#000000" />
  
  <rect x="90" y="130" width="10" height="60" fill="#000000" />
  <rect x="100" y="130" width="10" height="10" fill="#000000" />
  <rect x="290" y="130" width="10" height="10" fill="#000000" />
  <rect x="300" y="130" width="10" height="60" fill="#000000" />
  
  <rect x="100" y="190" width="10" height="10" fill="#000000" />
  <rect x="290" y="190" width="10" height="10" fill="#000000" />
  
  <rect x="110" y="200" width="10" height="10" fill="#000000" />
  <rect x="120" y="200" width="160" height="10" fill="#000000" />
  <rect x="280" y="200" width="10" height="10" fill="#000000" />
  
  <rect x="120" y="210" width="20" height="10" fill="#000000" />
  <rect x="140" y="210" width="120" height="10" fill="#000000" />
  <rect x="260" y="210" width="20" height="10" fill="#000000" />
  
  <rect x="140" y="220" width="20" height="10" fill="#000000" />
  <rect x="160" y="220" width="80" height="10" fill="#000000" />
  <rect x="240" y="220" width="20" height="10" fill="#000000" />
  
  <rect x="160" y="230" width="80" height="10" fill="#000000" />
  
  <!-- 몬스터볼 윗부분 (라벤더색) -->
  <rect x="140" y="90" width="120" height="10" fill="#92719f" />
  
  <rect x="120" y="100" width="160" height="10" fill="#92719f" />
  
  <rect x="110" y="110" width="10" height="10" fill="#92719f" />
  <rect x="120" y="110" width="160" height="10" fill="#92719f" />
  <rect x="280" y="110" width="10" height="10" fill="#92719f" />
  
  <rect x="100" y="120" width="10" height="10" fill="#92719f" />
  <rect x="110" y="120" width="180" height="10" fill="#92719f" />
  <rect x="290" y="120" width="10" height="10" fill="#92719f" />
  
  <rect x="100" y="130" width="10" height="20" fill="#92719f" />
  <rect x="110" y="130" width="180" height="20" fill="#92719f" />
  <rect x="290" y="130" width="10" height="20" fill="#92719f" />
  
  <!-- 몬스터볼 아랫부분 (흰색) -->
  <rect x="100" y="170" width="10" height="20" fill="#FFFFFF" />
  <rect x="110" y="170" width="180" height="20" fill="#FFFFFF" />
  <rect x="290" y="170" width="10" height="20" fill="#FFFFFF" />
  
  <rect x="110" y="190" width="10" height="10" fill="#FFFFFF" />
  <rect x="120" y="190" width="160" height="10" fill="#FFFFFF" />
  <rect x="280" y="190" width="10" height="10" fill="#FFFFFF" />
  
  <rect x="120" y="200" width="160" height="10" fill="#FFFFFF" />
  
  <rect x="140" y="210" width="120" height="10" fill="#FFFFFF" />
  
  <!-- 가운데 선과 버튼 -->
  <rect x="100" y="150" width="200" height="5" fill="#000000" />
  <rect x="100" y="155" width="200" height="5" fill="#000000" />
  
  <rect x="180" y="130" width="40" height="40" fill="#000000" />
  <rect x="185" y="135" width="30" height="30" fill="#FFFFFF" />
  
  <!-- 몬스터볼에 하이라이트 (빛 반사) -->
  <rect x="140" y="110" width="20" height="10" fill="#a587af" />
  <rect x="160" y="120" width="20" height="10" fill="#a587af" />
  <rect x="240" y="120" width="20" height="10" fill="#FFFFFF" opacity="0.5" />
  
  <!-- 삼각형 고양이 귀 - 귀 사이 공백 추가 -->
  <!-- 왼쪽 귀 -->
  <rect x="120" y="80" width="10" height="10" fill="#000000" />
  <rect x="130" y="70" width="10" height="10" fill="#000000" />
  <rect x="140" y="60" width="10" height="10" fill="#000000" />
  <rect x="150" y="50" width="10" height="10" fill="#000000" />
  <rect x="160" y="40" width="10" height="10" fill="#000000" />
  <rect x="170" y="50" width="10" height="10" fill="#000000" />
  <rect x="180" y="60" width="10" height="10" fill="#000000" />
  <rect x="190" y="70" width="10" height="10" fill="#000000" />
  
  <rect x="130" y="80" width="10" height="10" fill="#92719f" />
  <rect x="140" y="70" width="10" height="10" fill="#92719f" />
  <rect x="150" y="60" width="10" height="10" fill="#92719f" />
  <rect x="160" y="50" width="10" height="30" fill="#92719f" />
  <rect x="170" y="60" width="10" height="20" fill="#92719f" />
  <rect x="180" y="70" width="10" height="10" fill="#92719f" />
  
  <rect x="140" y="80" width="50" height="10" fill="#92719f" />
  <rect x="150" y="70" width="30" height="10" fill="#a587af" />
  
  <!-- 오른쪽 귀 -->
  <rect x="210" y="70" width="10" height="10" fill="#000000" />
  <rect x="220" y="60" width="10" height="10" fill="#000000" />
  <rect x="230" y="50" width="10" height="10" fill="#000000" />
  <rect x="240" y="40" width="10" height="10" fill="#000000" />
  <rect x="250" y="50" width="10" height="10" fill="#000000" />
  <rect x="260" y="60" width="10" height="10" fill="#000000" />
  <rect x="270" y="70" width="10" height="10" fill="#000000" />
  <rect x="280" y="80" width="10" height="10" fill="#000000" />
  
  <rect x="220" y="70" width="10" height="10" fill="#92719f" />
  <rect x="230" y="60" width="10" height="20" fill="#92719f" />
  <rect x="240" y="50" width="10" height="30" fill="#92719f" />
  <rect x="250" y="60" width="10" height="20" fill="#92719f" />
  <rect x="260" y="70" width="10" height="10" fill="#92719f" />
  <rect x="270" y="80" width="10" height="10" fill="#92719f" />
  
  <rect x="210" y="80" width="60" height="10" fill="#92719f" />
  <rect x="220" y="70" width="30" height="10" fill="#a587af" />
  </g>
</svg>